<mxfile host="app.diagrams.net" modified="2024-03-18T09:39:16.872Z" agent="Mozilla/5.0 (Windows NT 10.0; Win64; x64) AppleWebKit/537.36 (KHTML, like Gecko) Chrome/122.0.0.0 Safari/537.36 Edg/122.0.0.0" etag="7sqVhqv8B5Kz5b8PWlKB" version="23.1.7" type="device">
  <diagram name="Страница — 1" id="S3UpfY37bpJ4w3DLsQnd">
    <mxGraphModel dx="1107" dy="605" grid="1" gridSize="10" guides="1" tooltips="1" connect="1" arrows="1" fold="1" page="1" pageScale="1" pageWidth="827" pageHeight="1169" math="0" shadow="0">
      <root>
        <mxCell id="0" />
        <mxCell id="1" parent="0" />
        <mxCell id="bszZs-Kzh6Q2ry-nlEX2-1" value="User" style="shape=umlActor;verticalLabelPosition=bottom;verticalAlign=top;html=1;outlineConnect=0;" parent="1" vertex="1">
          <mxGeometry x="40" y="20" width="30" height="60" as="geometry" />
        </mxCell>
        <mxCell id="bszZs-Kzh6Q2ry-nlEX2-4" value=":Authorization system" style="rounded=0;whiteSpace=wrap;html=1;" parent="1" vertex="1">
          <mxGeometry x="155" y="20" width="130" height="60" as="geometry" />
        </mxCell>
        <mxCell id="bszZs-Kzh6Q2ry-nlEX2-5" value=":Access Manager" style="rounded=0;whiteSpace=wrap;html=1;" parent="1" vertex="1">
          <mxGeometry x="320" y="20" width="120" height="60" as="geometry" />
        </mxCell>
        <mxCell id="bszZs-Kzh6Q2ry-nlEX2-6" value=": Search Service" style="rounded=0;whiteSpace=wrap;html=1;" parent="1" vertex="1">
          <mxGeometry x="480" y="20" width="120" height="60" as="geometry" />
        </mxCell>
        <mxCell id="bszZs-Kzh6Q2ry-nlEX2-7" value=": Registration Service" style="rounded=0;whiteSpace=wrap;html=1;" parent="1" vertex="1">
          <mxGeometry x="650" y="20" width="130" height="60" as="geometry" />
        </mxCell>
        <mxCell id="bszZs-Kzh6Q2ry-nlEX2-8" value=": Booking Service" style="rounded=0;whiteSpace=wrap;html=1;" parent="1" vertex="1">
          <mxGeometry x="815" y="20" width="120" height="60" as="geometry" />
        </mxCell>
        <mxCell id="bszZs-Kzh6Q2ry-nlEX2-9" value="" style="rounded=0;whiteSpace=wrap;html=1;" parent="1" vertex="1">
          <mxGeometry x="50" y="120" width="10" height="520" as="geometry" />
        </mxCell>
        <mxCell id="bszZs-Kzh6Q2ry-nlEX2-10" value="" style="rounded=0;whiteSpace=wrap;html=1;" parent="1" vertex="1">
          <mxGeometry x="215" y="120" width="10" height="80" as="geometry" />
        </mxCell>
        <mxCell id="bszZs-Kzh6Q2ry-nlEX2-14" value="&lt;font style=&quot;font-size: 12px;&quot;&gt;input of data&lt;/font&gt;" style="text;html=1;align=center;verticalAlign=middle;whiteSpace=wrap;rounded=0;" parent="1" vertex="1">
          <mxGeometry x="100" y="100" width="85" height="10" as="geometry" />
        </mxCell>
        <mxCell id="bszZs-Kzh6Q2ry-nlEX2-16" value="" style="rounded=0;whiteSpace=wrap;html=1;" parent="1" vertex="1">
          <mxGeometry x="375" y="140" width="10" height="90" as="geometry" />
        </mxCell>
        <mxCell id="bszZs-Kzh6Q2ry-nlEX2-17" value="" style="endArrow=classic;html=1;rounded=0;exitX=0.903;exitY=0.028;exitDx=0;exitDy=0;exitPerimeter=0;entryX=0.1;entryY=0.04;entryDx=0;entryDy=0;entryPerimeter=0;" parent="1" edge="1">
          <mxGeometry width="50" height="50" relative="1" as="geometry">
            <mxPoint x="59.99999999999997" y="119.99999999999994" as="sourcePoint" />
            <mxPoint x="216.97" y="120.23999999999995" as="targetPoint" />
          </mxGeometry>
        </mxCell>
        <mxCell id="bszZs-Kzh6Q2ry-nlEX2-18" value="" style="endArrow=classic;html=1;rounded=0;entryX=0.128;entryY=0.154;entryDx=0;entryDy=0;entryPerimeter=0;exitX=0.984;exitY=0.413;exitDx=0;exitDy=0;exitPerimeter=0;" parent="1" source="bszZs-Kzh6Q2ry-nlEX2-10" target="bszZs-Kzh6Q2ry-nlEX2-16" edge="1">
          <mxGeometry width="50" height="50" relative="1" as="geometry">
            <mxPoint x="230" y="150" as="sourcePoint" />
            <mxPoint x="378" y="151" as="targetPoint" />
          </mxGeometry>
        </mxCell>
        <mxCell id="bszZs-Kzh6Q2ry-nlEX2-19" value="Data transmission" style="text;html=1;align=center;verticalAlign=middle;whiteSpace=wrap;rounded=0;" parent="1" vertex="1">
          <mxGeometry x="235" y="130" width="140" height="10" as="geometry" />
        </mxCell>
        <mxCell id="bszZs-Kzh6Q2ry-nlEX2-20" value="" style="endArrow=none;dashed=1;html=1;dashPattern=1 3;strokeWidth=2;rounded=0;entryX=0.5;entryY=1;entryDx=0;entryDy=0;exitX=0.5;exitY=0;exitDx=0;exitDy=0;" parent="1" source="bszZs-Kzh6Q2ry-nlEX2-10" target="bszZs-Kzh6Q2ry-nlEX2-4" edge="1">
          <mxGeometry width="50" height="50" relative="1" as="geometry">
            <mxPoint x="270" y="140" as="sourcePoint" />
            <mxPoint x="320" y="90" as="targetPoint" />
          </mxGeometry>
        </mxCell>
        <mxCell id="bszZs-Kzh6Q2ry-nlEX2-21" value="" style="endArrow=none;dashed=1;html=1;dashPattern=1 3;strokeWidth=2;rounded=0;entryX=0.5;entryY=1;entryDx=0;entryDy=0;exitX=0.5;exitY=0;exitDx=0;exitDy=0;" parent="1" source="bszZs-Kzh6Q2ry-nlEX2-16" target="bszZs-Kzh6Q2ry-nlEX2-5" edge="1">
          <mxGeometry width="50" height="50" relative="1" as="geometry">
            <mxPoint x="270" y="140" as="sourcePoint" />
            <mxPoint x="320" y="90" as="targetPoint" />
          </mxGeometry>
        </mxCell>
        <mxCell id="bszZs-Kzh6Q2ry-nlEX2-22" value="&lt;font style=&quot;font-size: 12px;&quot;&gt;Successful authorization&lt;/font&gt;" style="html=1;verticalAlign=bottom;endArrow=open;dashed=1;endSize=8;curved=0;rounded=0;exitX=0.117;exitY=0.935;exitDx=0;exitDy=0;exitPerimeter=0;entryX=0.983;entryY=0.202;entryDx=0;entryDy=0;entryPerimeter=0;" parent="1" source="bszZs-Kzh6Q2ry-nlEX2-16" target="bszZs-Kzh6Q2ry-nlEX2-9" edge="1">
          <mxGeometry x="0.4298" y="-5" relative="1" as="geometry">
            <mxPoint x="370" y="220" as="sourcePoint" />
            <mxPoint x="61" y="230" as="targetPoint" />
            <mxPoint as="offset" />
          </mxGeometry>
        </mxCell>
        <mxCell id="bszZs-Kzh6Q2ry-nlEX2-26" value="&lt;font style=&quot;font-size: 12px;&quot;&gt;Checking the data&lt;/font&gt;" style="text;html=1;align=center;verticalAlign=middle;whiteSpace=wrap;rounded=0;" parent="1" vertex="1">
          <mxGeometry x="440" y="170" width="60" height="10" as="geometry" />
        </mxCell>
        <mxCell id="bszZs-Kzh6Q2ry-nlEX2-32" value="" style="rounded=0;whiteSpace=wrap;html=1;" parent="1" vertex="1">
          <mxGeometry x="710" y="370" width="10" height="70" as="geometry" />
        </mxCell>
        <mxCell id="bszZs-Kzh6Q2ry-nlEX2-35" value="" style="endArrow=none;dashed=1;html=1;dashPattern=1 3;strokeWidth=2;rounded=0;exitX=0.5;exitY=0;exitDx=0;exitDy=0;" parent="1" edge="1">
          <mxGeometry width="50" height="50" relative="1" as="geometry">
            <mxPoint x="540" y="260" as="sourcePoint" />
            <mxPoint x="540" y="80" as="targetPoint" />
          </mxGeometry>
        </mxCell>
        <mxCell id="bszZs-Kzh6Q2ry-nlEX2-36" value="" style="endArrow=classic;html=1;rounded=0;entryX=0.13;entryY=0.164;entryDx=0;entryDy=0;entryPerimeter=0;exitX=1.042;exitY=0.294;exitDx=0;exitDy=0;exitPerimeter=0;" parent="1" target="sgAsvmIq_n0Vx4kpITKo-17" edge="1" source="bszZs-Kzh6Q2ry-nlEX2-9">
          <mxGeometry width="50" height="50" relative="1" as="geometry">
            <mxPoint x="60" y="283" as="sourcePoint" />
            <mxPoint x="535" y="283" as="targetPoint" />
          </mxGeometry>
        </mxCell>
        <mxCell id="bszZs-Kzh6Q2ry-nlEX2-37" value="&lt;font style=&quot;font-size: 12px;&quot;&gt;input wanted room&lt;/font&gt;" style="text;html=1;align=center;verticalAlign=middle;whiteSpace=wrap;rounded=0;" parent="1" vertex="1">
          <mxGeometry x="385" y="360" width="140" height="10" as="geometry" />
        </mxCell>
        <mxCell id="bszZs-Kzh6Q2ry-nlEX2-40" value="&lt;font style=&quot;&quot;&gt;&lt;font style=&quot;font-size: 12px;&quot;&gt;Search criteria&lt;/font&gt;&lt;br&gt;&lt;/font&gt;" style="text;html=1;align=center;verticalAlign=middle;whiteSpace=wrap;rounded=0;" parent="1" vertex="1">
          <mxGeometry x="600" y="270" width="60" height="20" as="geometry" />
        </mxCell>
        <mxCell id="bszZs-Kzh6Q2ry-nlEX2-43" value="" style="endArrow=none;dashed=1;html=1;dashPattern=1 3;strokeWidth=2;rounded=0;exitX=0.5;exitY=-0.004;exitDx=0;exitDy=0;exitPerimeter=0;" parent="1" source="bszZs-Kzh6Q2ry-nlEX2-9" edge="1">
          <mxGeometry width="50" height="50" relative="1" as="geometry">
            <mxPoint x="60" y="120" as="sourcePoint" />
            <mxPoint x="55" y="120" as="targetPoint" />
          </mxGeometry>
        </mxCell>
        <mxCell id="bszZs-Kzh6Q2ry-nlEX2-44" value="" style="rounded=0;whiteSpace=wrap;html=1;" parent="1" vertex="1">
          <mxGeometry x="870" y="380" width="10" height="260" as="geometry" />
        </mxCell>
        <mxCell id="bszZs-Kzh6Q2ry-nlEX2-46" value="" style="endArrow=none;dashed=1;html=1;dashPattern=1 3;strokeWidth=2;rounded=0;exitX=0.5;exitY=0;exitDx=0;exitDy=0;entryX=0.5;entryY=1;entryDx=0;entryDy=0;" parent="1" source="bszZs-Kzh6Q2ry-nlEX2-32" target="bszZs-Kzh6Q2ry-nlEX2-7" edge="1">
          <mxGeometry width="50" height="50" relative="1" as="geometry">
            <mxPoint x="720" y="290" as="sourcePoint" />
            <mxPoint x="720" y="100" as="targetPoint" />
          </mxGeometry>
        </mxCell>
        <mxCell id="bszZs-Kzh6Q2ry-nlEX2-47" value="" style="endArrow=none;dashed=1;html=1;dashPattern=1 3;strokeWidth=2;rounded=0;exitX=0.5;exitY=0;exitDx=0;exitDy=0;entryX=0.5;entryY=1;entryDx=0;entryDy=0;" parent="1" source="bszZs-Kzh6Q2ry-nlEX2-44" target="bszZs-Kzh6Q2ry-nlEX2-8" edge="1">
          <mxGeometry width="50" height="50" relative="1" as="geometry">
            <mxPoint x="880" y="390" as="sourcePoint" />
            <mxPoint x="880" y="100" as="targetPoint" />
          </mxGeometry>
        </mxCell>
        <mxCell id="bszZs-Kzh6Q2ry-nlEX2-49" value="&lt;font style=&quot;font-size: 12px;&quot;&gt;input search criteria&lt;/font&gt;" style="text;html=1;align=center;verticalAlign=middle;whiteSpace=wrap;rounded=0;" parent="1" vertex="1">
          <mxGeometry x="235" y="250" width="140" height="20" as="geometry" />
        </mxCell>
        <mxCell id="bszZs-Kzh6Q2ry-nlEX2-51" value="" style="endArrow=classic;html=1;rounded=0;entryX=0.07;entryY=0.114;entryDx=0;entryDy=0;entryPerimeter=0;exitX=1.13;exitY=0.687;exitDx=0;exitDy=0;exitPerimeter=0;" parent="1" edge="1">
          <mxGeometry width="50" height="50" relative="1" as="geometry">
            <mxPoint x="720.6" y="379.55000000000007" as="sourcePoint" />
            <mxPoint x="870.0000000000001" y="379.9599999999999" as="targetPoint" />
          </mxGeometry>
        </mxCell>
        <mxCell id="bszZs-Kzh6Q2ry-nlEX2-52" value="&lt;font style=&quot;font-size: 12px;&quot;&gt;send a booking request&lt;/font&gt;" style="text;html=1;align=center;verticalAlign=middle;whiteSpace=wrap;rounded=0;" parent="1" vertex="1">
          <mxGeometry x="720" y="350" width="140" height="20" as="geometry" />
        </mxCell>
        <mxCell id="bszZs-Kzh6Q2ry-nlEX2-55" value="&lt;font style=&quot;&quot;&gt;&lt;br&gt;&lt;/font&gt;" style="text;html=1;align=center;verticalAlign=middle;whiteSpace=wrap;rounded=0;" parent="1" vertex="1">
          <mxGeometry x="925" y="430" width="70" height="30" as="geometry" />
        </mxCell>
        <mxCell id="bszZs-Kzh6Q2ry-nlEX2-56" value="&lt;font style=&quot;font-size: 12px;&quot;&gt;output availability&lt;br&gt;confirmation message&lt;/font&gt;" style="html=1;verticalAlign=bottom;endArrow=open;dashed=1;endSize=8;curved=0;rounded=0;entryX=1;entryY=0.75;entryDx=0;entryDy=0;exitX=0;exitY=0.5;exitDx=0;exitDy=0;" parent="1" edge="1" target="bszZs-Kzh6Q2ry-nlEX2-9" source="bszZs-Kzh6Q2ry-nlEX2-44">
          <mxGeometry x="-0.3827" y="-10" relative="1" as="geometry">
            <mxPoint x="1040" y="460" as="sourcePoint" />
            <mxPoint x="62.019999999999975" y="459.99999999999994" as="targetPoint" />
            <mxPoint as="offset" />
          </mxGeometry>
        </mxCell>
        <mxCell id="bszZs-Kzh6Q2ry-nlEX2-57" value="" style="endArrow=classic;html=1;rounded=0;exitX=1.043;exitY=0.807;exitDx=0;exitDy=0;exitPerimeter=0;entryX=-0.033;entryY=0.615;entryDx=0;entryDy=0;entryPerimeter=0;" parent="1" source="bszZs-Kzh6Q2ry-nlEX2-9" edge="1" target="bszZs-Kzh6Q2ry-nlEX2-44">
          <mxGeometry width="50" height="50" relative="1" as="geometry">
            <mxPoint x="63" y="531" as="sourcePoint" />
            <mxPoint x="1040" y="525" as="targetPoint" />
          </mxGeometry>
        </mxCell>
        <mxCell id="bszZs-Kzh6Q2ry-nlEX2-58" value="&lt;font style=&quot;font-size: 12px;&quot;&gt;book wanted room&lt;/font&gt;" style="text;html=1;align=center;verticalAlign=middle;whiteSpace=wrap;rounded=0;" parent="1" vertex="1">
          <mxGeometry x="400" y="520" width="140" height="10" as="geometry" />
        </mxCell>
        <mxCell id="bszZs-Kzh6Q2ry-nlEX2-62" value="&lt;font style=&quot;font-size: 12px;&quot;&gt;successful booking&lt;br&gt;&amp;nbsp;conformatiom&lt;/font&gt;" style="html=1;verticalAlign=bottom;endArrow=open;dashed=1;endSize=8;curved=0;rounded=0;exitX=-0.217;exitY=0.942;exitDx=0;exitDy=0;exitPerimeter=0;" parent="1" source="bszZs-Kzh6Q2ry-nlEX2-44" edge="1">
          <mxGeometry x="0.1837" y="-8" relative="1" as="geometry">
            <mxPoint x="827" y="560" as="sourcePoint" />
            <mxPoint x="55" y="626" as="targetPoint" />
            <mxPoint as="offset" />
          </mxGeometry>
        </mxCell>
        <mxCell id="bszZs-Kzh6Q2ry-nlEX2-65" value="" style="endArrow=none;dashed=1;html=1;dashPattern=1 3;strokeWidth=2;rounded=0;entryX=0.5;entryY=1;entryDx=0;entryDy=0;" parent="1" target="bszZs-Kzh6Q2ry-nlEX2-10" edge="1">
          <mxGeometry width="50" height="50" relative="1" as="geometry">
            <mxPoint x="220" y="680" as="sourcePoint" />
            <mxPoint x="219.5" y="285" as="targetPoint" />
          </mxGeometry>
        </mxCell>
        <mxCell id="bszZs-Kzh6Q2ry-nlEX2-66" value="" style="endArrow=none;dashed=1;html=1;dashPattern=1 3;strokeWidth=2;rounded=0;entryX=0.5;entryY=1;entryDx=0;entryDy=0;" parent="1" target="bszZs-Kzh6Q2ry-nlEX2-16" edge="1">
          <mxGeometry width="50" height="50" relative="1" as="geometry">
            <mxPoint x="380" y="680" as="sourcePoint" />
            <mxPoint x="360" y="265" as="targetPoint" />
          </mxGeometry>
        </mxCell>
        <mxCell id="bszZs-Kzh6Q2ry-nlEX2-67" value="" style="endArrow=none;dashed=1;html=1;dashPattern=1 3;strokeWidth=2;rounded=0;entryX=0.5;entryY=1;entryDx=0;entryDy=0;" parent="1" edge="1">
          <mxGeometry width="50" height="50" relative="1" as="geometry">
            <mxPoint x="540" y="680" as="sourcePoint" />
            <mxPoint x="540" y="349.9999999999999" as="targetPoint" />
          </mxGeometry>
        </mxCell>
        <mxCell id="bszZs-Kzh6Q2ry-nlEX2-68" value="" style="endArrow=none;dashed=1;html=1;dashPattern=1 3;strokeWidth=2;rounded=0;entryX=0.5;entryY=1;entryDx=0;entryDy=0;" parent="1" edge="1">
          <mxGeometry width="50" height="50" relative="1" as="geometry">
            <mxPoint x="55" y="680" as="sourcePoint" />
            <mxPoint x="54.58000000000001" y="640" as="targetPoint" />
          </mxGeometry>
        </mxCell>
        <mxCell id="bszZs-Kzh6Q2ry-nlEX2-69" value="" style="endArrow=none;dashed=1;html=1;dashPattern=1 3;strokeWidth=2;rounded=0;entryX=0.5;entryY=1;entryDx=0;entryDy=0;" parent="1" target="bszZs-Kzh6Q2ry-nlEX2-32" edge="1">
          <mxGeometry width="50" height="50" relative="1" as="geometry">
            <mxPoint x="715" y="680" as="sourcePoint" />
            <mxPoint x="710" y="490" as="targetPoint" />
          </mxGeometry>
        </mxCell>
        <mxCell id="bszZs-Kzh6Q2ry-nlEX2-70" value="" style="endArrow=none;dashed=1;html=1;dashPattern=1 3;strokeWidth=2;rounded=0;entryX=0.5;entryY=1;entryDx=0;entryDy=0;" parent="1" target="bszZs-Kzh6Q2ry-nlEX2-44" edge="1">
          <mxGeometry width="50" height="50" relative="1" as="geometry">
            <mxPoint x="875" y="680" as="sourcePoint" />
            <mxPoint x="1055" y="480" as="targetPoint" />
          </mxGeometry>
        </mxCell>
        <mxCell id="UY0TH6I4wztvOWJe15O3-4" style="edgeStyle=orthogonalEdgeStyle;rounded=0;orthogonalLoop=1;jettySize=auto;html=1;exitX=1.014;exitY=0.125;exitDx=0;exitDy=0;exitPerimeter=0;" parent="1" target="sgAsvmIq_n0Vx4kpITKo-3" edge="1">
          <mxGeometry relative="1" as="geometry">
            <mxPoint x="385.0000000000001" y="182.32000000000002" as="targetPoint" />
            <mxPoint x="385.0000000000001" y="159.99999999999986" as="sourcePoint" />
            <Array as="points">
              <mxPoint x="434" y="160" />
              <mxPoint x="434" y="182" />
            </Array>
          </mxGeometry>
        </mxCell>
        <mxCell id="sgAsvmIq_n0Vx4kpITKo-3" value="" style="html=1;points=[[0,0,0,0,5],[0,1,0,0,-5],[1,0,0,0,5],[1,1,0,0,-5]];perimeter=orthogonalPerimeter;outlineConnect=0;targetShapes=umlLifeline;portConstraint=eastwest;newEdgeStyle={&quot;curved&quot;:0,&quot;rounded&quot;:0};" parent="1" vertex="1">
          <mxGeometry x="380" y="170" width="10" height="40" as="geometry" />
        </mxCell>
        <mxCell id="sgAsvmIq_n0Vx4kpITKo-17" value="" style="rounded=0;whiteSpace=wrap;html=1;" parent="1" vertex="1">
          <mxGeometry x="540" y="258" width="10" height="90" as="geometry" />
        </mxCell>
        <mxCell id="sgAsvmIq_n0Vx4kpITKo-18" style="edgeStyle=orthogonalEdgeStyle;rounded=0;orthogonalLoop=1;jettySize=auto;html=1;exitX=1.014;exitY=0.125;exitDx=0;exitDy=0;exitPerimeter=0;" parent="1" target="sgAsvmIq_n0Vx4kpITKo-19" edge="1">
          <mxGeometry relative="1" as="geometry">
            <mxPoint x="550.0000000000001" y="300.32000000000005" as="targetPoint" />
            <mxPoint x="550.0000000000001" y="277.9999999999999" as="sourcePoint" />
            <Array as="points">
              <mxPoint x="599" y="278" />
              <mxPoint x="599" y="300" />
            </Array>
          </mxGeometry>
        </mxCell>
        <mxCell id="sgAsvmIq_n0Vx4kpITKo-19" value="" style="html=1;points=[[0,0,0,0,5],[0,1,0,0,-5],[1,0,0,0,5],[1,1,0,0,-5]];perimeter=orthogonalPerimeter;outlineConnect=0;targetShapes=umlLifeline;portConstraint=eastwest;newEdgeStyle={&quot;curved&quot;:0,&quot;rounded&quot;:0};" parent="1" vertex="1">
          <mxGeometry x="545" y="288" width="10" height="40" as="geometry" />
        </mxCell>
        <mxCell id="gHh-vndJ0rCo2Kycr9s7-3" value="" style="html=1;points=[[0,0,0,0,5],[0,1,0,0,-5],[1,0,0,0,5],[1,1,0,0,-5]];perimeter=orthogonalPerimeter;outlineConnect=0;targetShapes=umlLifeline;portConstraint=eastwest;newEdgeStyle={&quot;curved&quot;:0,&quot;rounded&quot;:0};" vertex="1" parent="1">
          <mxGeometry x="875" y="450" width="10" height="40" as="geometry" />
        </mxCell>
        <mxCell id="gHh-vndJ0rCo2Kycr9s7-4" value="&lt;font style=&quot;font-size: 12px;&quot;&gt;validating&amp;nbsp;&lt;br&gt;the availability&amp;nbsp;&lt;/font&gt;" style="html=1;align=left;spacingLeft=2;endArrow=block;rounded=0;edgeStyle=orthogonalEdgeStyle;curved=0;rounded=0;" edge="1" target="gHh-vndJ0rCo2Kycr9s7-3" parent="1">
          <mxGeometry relative="1" as="geometry">
            <mxPoint x="880" y="430" as="sourcePoint" />
            <Array as="points">
              <mxPoint x="910" y="460" />
            </Array>
          </mxGeometry>
        </mxCell>
        <mxCell id="gHh-vndJ0rCo2Kycr9s7-6" value="" style="html=1;points=[[0,0,0,0,5],[0,1,0,0,-5],[1,0,0,0,5],[1,1,0,0,-5]];perimeter=orthogonalPerimeter;outlineConnect=0;targetShapes=umlLifeline;portConstraint=eastwest;newEdgeStyle={&quot;curved&quot;:0,&quot;rounded&quot;:0};" vertex="1" parent="1">
          <mxGeometry x="875" y="570" width="10" height="40" as="geometry" />
        </mxCell>
        <mxCell id="gHh-vndJ0rCo2Kycr9s7-7" value="&lt;font style=&quot;font-size: 12px;&quot;&gt;booking&lt;/font&gt;" style="html=1;align=left;spacingLeft=2;endArrow=block;rounded=0;edgeStyle=orthogonalEdgeStyle;curved=0;rounded=0;" edge="1" target="gHh-vndJ0rCo2Kycr9s7-6" parent="1">
          <mxGeometry relative="1" as="geometry">
            <mxPoint x="880" y="550" as="sourcePoint" />
            <Array as="points">
              <mxPoint x="910" y="580" />
            </Array>
          </mxGeometry>
        </mxCell>
        <mxCell id="gHh-vndJ0rCo2Kycr9s7-8" value="Output of results" style="html=1;verticalAlign=bottom;endArrow=open;dashed=1;endSize=8;curved=0;rounded=0;exitX=0.069;exitY=0.846;exitDx=0;exitDy=0;exitPerimeter=0;entryX=0.983;entryY=0.202;entryDx=0;entryDy=0;entryPerimeter=0;" edge="1" parent="1" source="sgAsvmIq_n0Vx4kpITKo-17">
          <mxGeometry x="-0.0421" y="-4" relative="1" as="geometry">
            <mxPoint x="375" y="332.47" as="sourcePoint" />
            <mxPoint x="59" y="333.47" as="targetPoint" />
            <mxPoint as="offset" />
          </mxGeometry>
        </mxCell>
        <mxCell id="gHh-vndJ0rCo2Kycr9s7-9" value="" style="endArrow=classic;html=1;rounded=0;entryX=-0.024;entryY=0.383;entryDx=0;entryDy=0;entryPerimeter=0;exitX=1.042;exitY=0.294;exitDx=0;exitDy=0;exitPerimeter=0;" edge="1" parent="1">
          <mxGeometry width="50" height="50" relative="1" as="geometry">
            <mxPoint x="60" y="379.5" as="sourcePoint" />
            <mxPoint x="709.7600000000002" y="378.29999999999995" as="targetPoint" />
          </mxGeometry>
        </mxCell>
      </root>
    </mxGraphModel>
  </diagram>
</mxfile>
